<?xml version="1.0" standalone="no"?><!DOCTYPE svg PUBLIC "-//W3C//DTD SVG 1.1//EN" "http://www.w3.org/Graphics/SVG/1.1/DTD/svg11.dtd"><svg t="1648089787429" class="icon" viewBox="0 0 1024 1024" version="1.1" xmlns="http://www.w3.org/2000/svg" p-id="2234" width="64" height="64" xmlns:xlink="http://www.w3.org/1999/xlink"><defs><style type="text/css">@font-face { font-family: feedback-iconfont; src: url("//at.alicdn.com/t/font_1031158_u69w8yhxdu.woff2?t=1630033759944") format("woff2"), url("//at.alicdn.com/t/font_1031158_u69w8yhxdu.woff?t=1630033759944") format("woff"), url("//at.alicdn.com/t/font_1031158_u69w8yhxdu.ttf?t=1630033759944") format("truetype"); }
</style></defs><path d="M589.741806 1023.771683H151.259755c-13.242363 0-23.973244-10.730881-23.973244-23.973244V23.973244c0-13.242363 10.730881-23.973244 23.973244-23.973244h721.937123c13.242363 0 23.973244 10.730881 23.973245 23.973244v708.009811h-45.663323V45.663322H172.949833v932.445039h416.791973v45.663322z" p-id="2235" fill="#ffffff"></path><path d="M285.167447 172.379041H739.175028v45.663322H285.167447zM285.167447 310.624749H739.175028v45.663322H285.167447zM285.167447 448.756299H739.175028v45.663322H285.167447zM750.590858 1022.744259c-79.910814 0-144.86689-64.956076-144.866889-144.86689s65.070234-144.981048 144.866889-144.981048c79.910814 0 144.981048 65.070234 144.981048 144.981048s-65.070234 144.86689-144.981048 144.86689z m0-244.184616c-54.681828 0-99.203567 44.521739-99.203567 99.203568s44.521739 99.203567 99.203567 99.203567c54.681828 0 99.203567-44.521739 99.203568-99.203567S805.386845 778.559643 750.590858 778.559643z" p-id="2236" fill="#ffffff"></path><path d="M736.092754 935.869788c-5.822074 0-11.644147-2.283166-16.096321-6.73534l-35.617392-35.389075c-8.904348-8.904348-8.904348-23.402453 0-32.3068 8.904348-8.904348 23.402453-8.904348 32.306801 0l19.406912 19.406912 47.718171-47.718172c8.904348-8.904348 23.402453-8.904348 32.306801 0 8.904348 8.904348 8.904348 23.402453 0 32.306801l-63.928651 63.814492c-4.452174 4.452174-10.274247 6.621182-16.096321 6.621182z" p-id="2237" fill="#ffffff"></path></svg>