<?xml version="1.0" encoding="utf-8"?>
<svg version="1.1" xmlns:xlink="http://www.w3.org/1999/xlink" width="25px" height="21px" xmlns="http://www.w3.org/2000/svg">
  <g transform="matrix(1 0 0 1 -1470 -83 )">
    <path d="M 8.40541294642857 7.5126953125  C 8.75418526785714 7.8544921875  8.92857142857143 8.26692708333333  8.92857142857143 8.75  C 8.92857142857143 9.23307291666667  8.75418526785714 9.6455078125  8.40541294642857 9.9873046875  C 8.056640625 10.3291015625  7.63578869047619 10.5  7.14285714285714 10.5  C 6.6499255952381 10.5  6.22907366071429 10.3291015625  5.88030133928571 9.9873046875  C 5.53152901785714 9.6455078125  5.35714285714286 9.23307291666667  5.35714285714286 8.75  C 5.35714285714286 8.26692708333333  5.53152901785714 7.8544921875  5.88030133928571 7.5126953125  C 6.22907366071429 7.1708984375  6.6499255952381 7  7.14285714285714 7  C 7.63578869047619 7  8.056640625 7.1708984375  8.40541294642857 7.5126953125  Z M 13.7625558035714 7.5126953125  C 14.111328125 7.8544921875  14.2857142857143 8.26692708333333  14.2857142857143 8.75  C 14.2857142857143 9.23307291666667  14.111328125 9.6455078125  13.7625558035714 9.9873046875  C 13.4137834821429 10.3291015625  12.992931547619 10.5  12.5 10.5  C 12.007068452381 10.5  11.5862165178571 10.3291015625  11.2374441964286 9.9873046875  C 10.888671875 9.6455078125  10.7142857142857 9.23307291666667  10.7142857142857 8.75  C 10.7142857142857 8.26692708333333  10.888671875 7.8544921875  11.2374441964286 7.5126953125  C 11.5862165178571 7.1708984375  12.007068452381 7  12.5 7  C 12.992931547619 7  13.4137834821429 7.1708984375  13.7625558035714 7.5126953125  Z M 19.1196986607143 7.5126953125  C 19.4684709821429 7.8544921875  19.6428571428571 8.26692708333333  19.6428571428571 8.75  C 19.6428571428571 9.23307291666667  19.4684709821429 9.6455078125  19.1196986607143 9.9873046875  C 18.7709263392857 10.3291015625  18.3500744047619 10.5  17.8571428571429 10.5  C 17.3642113095238 10.5  16.943359375 10.3291015625  16.5945870535714 9.9873046875  C 16.2458147321429 9.6455078125  16.0714285714286 9.23307291666667  16.0714285714286 8.75  C 16.0714285714286 8.26692708333333  16.2458147321429 7.8544921875  16.5945870535714 7.5126953125  C 16.943359375 7.1708984375  17.3642113095238 7  17.8571428571429 7  C 18.3500744047619 7  18.7709263392857 7.1708984375  19.1196986607143 7.5126953125  Z M 17.822265625 2.7001953125  C 16.1714099702381 2.06673177083333  14.3973214285714 1.75  12.5 1.75  C 10.6026785714286 1.75  8.82859002976191 2.06673177083333  7.177734375 2.7001953125  C 5.52687872023809 3.33365885416667  4.21549479166667 4.18815104166667  3.24358258928571 5.263671875  C 2.27167038690476 6.33919270833333  1.78571428571429 7.50130208333333  1.78571428571429 8.75  C 1.78571428571429 9.77083333333333  2.11821056547619 10.7438151041667  2.783203125 11.6689453125  C 3.44819568452381 12.5940755208333  4.38523065476191 13.3938802083333  5.59430803571429 14.068359375  L 6.80803571428571 14.751953125  L 6.43136160714286 16.064453125  C 6.20814732142857 16.8938802083333  5.88262648809524 17.677734375  5.45479910714286 18.416015625  C 6.86848958333333 17.841796875  8.14732142857143 17.0625  9.29129464285714 16.078125  L 9.89118303571429 15.55859375  L 10.6863839285714 15.640625  C 11.328125 15.7135416666667  11.9326636904762 15.75  12.5 15.75  C 14.3973214285714 15.75  16.1714099702381 15.4332682291667  17.822265625 14.7998046875  C 19.4731212797619 14.1663411458333  20.7845052083333 13.3118489583333  21.7564174107143 12.236328125  C 22.7283296130952 11.1608072916667  23.2142857142857 9.99869791666667  23.2142857142857 8.75  C 23.2142857142857 7.50130208333333  22.7283296130952 6.33919270833333  21.7564174107143 5.263671875  C 20.7845052083333 4.18815104166667  19.4731212797619 3.33365885416667  17.822265625 2.7001953125  Z M 24.0094866071429 5.3525390625  C 24.6698288690476 6.4326171875  25 7.56510416666667  25 8.75  C 25 10.3359375  24.4419642857143 11.8011067708333  23.3258928571429 13.1455078125  C 22.2098214285714 14.4899088541667  20.6938244047619 15.5517578125  18.7779017857143 16.3310546875  C 16.8619791666667 17.1103515625  14.7693452380952 17.5  12.5 17.5  C 11.8489583333333 17.5  11.1746651785714 17.4635416666667  10.4771205357143 17.390625  C 8.63560267857143 18.9856770833333  6.49646577380952 20.0885416666667  4.05970982142857 20.69921875  C 3.60398065476191 20.8268229166667  3.07384672619048 20.9270833333333  2.46930803571429 21  L 2.39955357142857 21  C 2.26004464285714 21  2.13448660714286 20.9521484375  2.02287946428571 20.8564453125  C 1.91127232142857 20.7607421875  1.83686755952381 20.6354166666667  1.79966517857143 20.48046875  L 1.79966517857143 20.466796875  C 1.77176339285714 20.4303385416667  1.76943824404762 20.3756510416667  1.79268973214286 20.302734375  C 1.8159412202381 20.2298177083333  1.82524181547619 20.1842447916667  1.82059151785714 20.166015625  C 1.8159412202381 20.1477864583333  1.83686755952381 20.1044921875  1.88337053571429 20.0361328125  L 1.96707589285714 19.9130859375  C 1.96707589285714 19.9130859375  1.99962797619048 19.8743489583333  2.06473214285714 19.796875  C 2.12983630952381 19.7194010416667  2.16703869047619 19.6783854166667  2.17633928571429 19.673828125  C 2.24144345238095 19.6009114583333  2.38560267857143 19.4436848958333  2.60881696428571 19.2021484375  C 2.83203125 18.9606119791667  2.99246651785714 18.7874348958333  3.09012276785714 18.6826171875  C 3.18777901785714 18.5777994791667  3.33193824404762 18.3977864583333  3.52260044642857 18.142578125  C 3.71326264880952 17.8873697916667  3.86439732142857 17.6549479166667  3.97600446428571 17.4453125  C 4.08761160714286 17.2356770833333  4.21316964285714 16.966796875  4.35267857142857 16.638671875  C 4.4921875 16.310546875  4.61309523809524 15.9641927083333  4.71540178571429 15.599609375  C 3.25520833333333 14.7884114583333  2.10425967261905 13.7858072916667  1.26255580357143 12.591796875  C 0.420851934523809 11.3977864583333  0 10.1171875  0 8.75  C 0 7.56510416666667  0.330171130952381 6.4326171875  0.990513392857143 5.3525390625  C 1.6508556547619 4.2724609375  2.5390625 3.34049479166666  3.65513392857143 2.556640625  C 4.77120535714286 1.77278645833333  6.10119047619048 1.15071614583333  7.64508928571429 0.690429687499999  C 9.1889880952381 0.230143229166666  10.8072916666667 0  12.5 0  C 14.1927083333333 0  15.8110119047619 0.230143229166666  17.3549107142857 0.690429687499999  C 18.8988095238095 1.15071614583333  20.2287946428571 1.77278645833333  21.3448660714286 2.556640625  C 22.4609375 3.34049479166666  23.3491443452381 4.2724609375  24.0094866071429 5.3525390625  Z " fill-rule="nonzero" fill="#b0abab" stroke="none" transform="matrix(1 0 0 1 1470 83 )" />
  </g>
</svg>