<?xml version="1.0" standalone="no"?><!DOCTYPE svg PUBLIC "-//W3C//DTD SVG 1.1//EN" "http://www.w3.org/Graphics/SVG/1.1/DTD/svg11.dtd"><svg t="1658890757456" class="icon" viewBox="0 0 1024 1024" version="1.1" xmlns="http://www.w3.org/2000/svg" p-id="42989" xmlns:xlink="http://www.w3.org/1999/xlink" width="200" height="200"><defs><style type="text/css">@font-face { font-family: feedback-iconfont; src: url("//at.alicdn.com/t/font_1031158_u69w8yhxdu.woff2?t=1630033759944") format("woff2"), url("//at.alicdn.com/t/font_1031158_u69w8yhxdu.woff?t=1630033759944") format("woff"), url("//at.alicdn.com/t/font_1031158_u69w8yhxdu.ttf?t=1630033759944") format("truetype"); }
</style></defs><path d="M469.333333 135.68v752.64c0 27.306667-25.173333 47.786667-51.626666 41.813333C226.986667 887.466667 85.333333 716.373333 85.333333 512c0-204.373333 141.653333-375.466667 332.373334-418.133333a42.581333 42.581333 0 0 1 51.626666 41.813333z m86.613334 0v290.56c0 23.466667 19.2 42.666667 42.666666 42.666667h289.706667c27.306667 0 47.786667-25.173333 41.813333-52.053334-36.266667-160.426667-162.133333-286.72-322.133333-322.986666-26.88-5.973333-52.053333 14.506667-52.053333 41.813333z m0 462.08v290.56c0 27.306667 25.173333 47.786667 52.053333 41.813333 160.426667-36.266667 286.293333-162.986667 322.56-323.413333 5.973333-26.453333-14.933333-52.053333-41.813333-52.053333h-289.706667c-23.893333 0.426667-43.093333 19.626667-43.093333 43.093333z" p-id="42990" fill="#ffffff"></path></svg>