<?xml version="1.0" encoding="utf-8"?>
<svg version="1.1" xmlns:xlink="http://www.w3.org/1999/xlink" width="23px" height="23px" xmlns="http://www.w3.org/2000/svg">
  <g transform="matrix(1 0 0 1 -21 -415 )">
    <path d="M 22.1790295593977 0  C 22.3500650678565 0  22.5039970254694 0.047061011904764  22.6408254322365 0.141183035714287  C 22.9230340211935 0.346540178571429  23.0384829894032 0.620349702380952  22.9871723368656 0.962611607142858  L 19.7032905744562 20.6768973214286  C 19.6605316973415 20.925037202381  19.5237032905745 21.1175595238095  19.292805354155 21.2544642857143  C 19.1730804982339 21.3229166666667  19.0405279791783 21.3571428571429  18.8951477969883 21.3571428571429  C 18.8010782673359 21.3571428571429  18.6984569622606 21.3357514880952  18.5872838817624 21.29296875  L 12.776352481874 18.9185267857143  L 9.67205800334635 22.7047991071429  C 9.51812604573341 22.901599702381  9.30860754787135 23  9.04350250976018 23  C 8.93232942926194 23  8.83825989960959 22.9828869047619  8.76129392080312 22.9486607142857  C 8.59881018776724 22.8887648809524  8.46839561256739 22.7882254464286  8.37005019520357 22.6470424107143  C 8.27170477783975 22.505859375  8.22253206915784 22.3497023809524  8.22253206915784 22.1785714285714  L 8.22253206915784 17.69921875  L 19.3056330172895 4.10714285714286  L 5.59286112660346 15.9793526785714  L 0.525934188510876 13.9001116071429  C 0.209518497862056 13.7803199404762  0.0384829894032348 13.5450148809524  0.0128276631344116 13.1941964285714  C -0.00427588771147054 12.8519345238095  0.132552519055587 12.5995163690476  0.423312883435583 12.4369419642857  L 21.7685443390965 0.115513392857142  C 21.8968209704406 0.0385044642857132  22.0336493772077 0  22.1790295593977 0  Z " fill-rule="nonzero" fill="#ffffff" stroke="none" transform="matrix(1 0 0 1 21 415 )" />
  </g>
</svg>