<?xml version="1.0" standalone="no"?><!DOCTYPE svg PUBLIC "-//W3C//DTD SVG 1.1//EN" "http://www.w3.org/Graphics/SVG/1.1/DTD/svg11.dtd"><svg t="1658889864769" class="icon" viewBox="0 0 1024 1024" version="1.1" xmlns="http://www.w3.org/2000/svg" p-id="14024" xmlns:xlink="http://www.w3.org/1999/xlink" width="200" height="200"><defs><style type="text/css">@font-face { font-family: feedback-iconfont; src: url("//at.alicdn.com/t/font_1031158_u69w8yhxdu.woff2?t=1630033759944") format("woff2"), url("//at.alicdn.com/t/font_1031158_u69w8yhxdu.woff?t=1630033759944") format("woff"), url("//at.alicdn.com/t/font_1031158_u69w8yhxdu.ttf?t=1630033759944") format("truetype"); }
</style></defs><path d="M983.269159 906.484674C951.997874 829.768673 892.966695 762.563274 813.657429 713.375092L774.173541 688.886908 739.555514 719.874607C677.374262 775.534995 597.200337 806.787879 512 806.787879 426.799663 806.787879 346.625738 775.534995 284.444486 719.874607L249.826459 688.886908 210.342571 713.375092C129.358693 763.601889 69.518274 832.614803 38.787165 911.356928 24.808014 947.175579 19.985036 993.358165 19.985036 993.358165 17.60166 1010.281193 29.450674 1024 46.71758 1024 63.864956 1024 91.407205 1024 108.674886 1024L915.325114 1024C932.395815 1024 960.015515 1024 977.28242 1024 994.429766 1024 1006.439455 1010.108044 1003.915854 993.571995 1003.915854 993.571995 998.454675 943.738415 983.269159 906.484674ZM15.515152 434.424242C15.515152 370.349087 33.037064 317.613925 95.358511 311.001678 148.540757 131.195221 314.949229 0 512 0 709.050771 0 875.459243 131.195221 928.641489 311.001678 990.962936 317.613925 1008.484848 370.349087 1008.484848 434.424242 1008.484848 498.499398 990.962936 551.23456 928.641489 557.846807 928.572571 558.079783 925.10028 557.956965 925.10028 557.956965 890.900139 558.281976 870.852422 531.894675 878.835402 498.648716 878.835402 498.648716 875.613308 517.914624 879.196625 496.595285 882.594754 476.377864 884.363636 455.607606 884.363636 434.424242 884.363636 228.773485 717.650758 62.060606 512 62.060606 306.349242 62.060606 139.636364 228.773485 139.636364 434.424242 139.636364 455.609654 141.405587 476.381805 144.804336 496.601088 148.387654 517.918379 145.16556 498.654301 145.16556 498.654301 153.813799 531.73127 132.770226 558.545455 98.713321 558.545455L95.565762 558.545455C33.037064 551.23456 15.515152 498.499398 15.515152 434.424242ZM512 744.727273C683.375616 744.727273 822.30303 605.799858 822.30303 434.424242 822.30303 263.048626 683.375616 124.121212 512 124.121212 340.624384 124.121212 201.69697 263.048626 201.69697 434.424242 201.69697 605.799858 340.624384 744.727273 512 744.727273Z" p-id="14025" fill="#ffffff"></path></svg>