<?xml version="1.0" encoding="utf-8"?>
<svg version="1.1" xmlns:xlink="http://www.w3.org/1999/xlink" width="41px" height="27px" xmlns="http://www.w3.org/2000/svg">
  <g transform="matrix(1 0 0 1 -124 -218 )">
    <path d="M 10.9333333333333 9.64285714285714  C 10.9333333333333 11.0390625  11.5098958333333 12.3247767857143  12.6630208333333 13.5  C 10.3567708333333 13.5502232142857  8.47048611111111 14.1930803571429  7.00416666666667 15.4285714285714  L 4.14270833333333 15.4285714285714  C 2.97534722222222 15.4285714285714  1.99305555555556 15.2251674107143  1.19583333333333 14.818359375  C 0.398611111111111 14.4115513392857  0 13.81640625  0 13.0329241071429  C 0 9.48716517857143  0.882638888888889 7.71428571428571  2.64791666666667 7.71428571428571  C 2.73333333333333 7.71428571428571  3.04296875 7.81975446428571  3.57682291666667 8.03069196428571  C 4.11067708333333 8.24162946428571  4.8046875 8.455078125  5.65885416666667 8.67103794642857  C 6.51302083333333 8.88699776785714  7.36006944444444 8.99497767857143  8.2 8.99497767857143  C 9.15381944444444 8.99497767857143  10.1005208333333 8.87946428571428  11.0401041666667 8.6484375  C 10.9689236111111 9.02008928571428  10.9333333333333 9.3515625  10.9333333333333 9.64285714285714  Z M 35.45859375 21.5382254464286  C 35.5084201388889 22.0454799107143  35.5333333333333 22.5652901785714  35.5333333333333 23.09765625  C 35.5333333333333 24.3030133928571  35.0137152777778 25.2547433035714  33.9744791666667 25.9528459821429  C 32.9352430555556 26.6509486607143  31.5543402777778 27  29.8317708333333 27  L 11.1682291666667 27  C 9.44565972222222 27  8.06475694444445 26.6509486607143  7.02552083333333 25.9528459821429  C 5.98628472222222 25.2547433035714  5.46666666666667 24.3030133928571  5.46666666666667 23.09765625  C 5.46666666666667 22.5652901785714  5.49157986111111 22.0454799107143  5.54140625 21.5382254464286  C 5.59123263888889 21.0309709821429  5.69088541666667 20.4835379464286  5.84036458333333 19.8959263392857  C 5.98984375 19.3083147321429  6.17847222222222 18.7633928571429  6.40625 18.2611607142857  C 6.63402777777778 17.7589285714286  6.94010416666667 17.2692522321429  7.32447916666667 16.7921316964286  C 7.70885416666667 16.3150111607143  8.15017361111111 15.908203125  8.6484375 15.5717075892857  C 9.14670138888889 15.2352120535714  9.75529513888889 14.9665178571429  10.47421875 14.765625  C 11.1931423611111 14.5647321428571  11.9868055555556 14.4642857142857  12.8552083333333 14.4642857142857  C 12.9975694444444 14.4642857142857  13.3036458333333 14.572265625  13.7734375 14.7882254464286  C 14.2432291666667 15.0041852678571  14.7628472222222 15.2452566964286  15.3322916666667 15.5114397321429  C 15.9017361111111 15.7776227678571  16.6633680555556 16.0186941964286  17.6171875 16.2346540178571  C 18.5710069444444 16.4506138392857  19.5319444444444 16.55859375  20.5 16.55859375  C 21.4680555555556 16.55859375  22.4289930555556 16.4506138392857  23.3828125 16.2346540178571  C 24.3366319444444 16.0186941964286  25.0982638888889 15.7776227678571  25.6677083333333 15.5114397321429  C 26.2371527777778 15.2452566964286  26.7567708333333 15.0041852678571  27.2265625 14.7882254464286  C 27.6963541666667 14.572265625  28.0024305555556 14.4642857142857  28.1447916666667 14.4642857142857  C 29.0131944444444 14.4642857142857  29.8068576388889 14.5647321428571  30.52578125 14.765625  C 31.2447048611111 14.9665178571429  31.8532986111111 15.2352120535714  32.3515625 15.5717075892857  C 32.8498263888889 15.908203125  33.2911458333333 16.3150111607143  33.6755208333333 16.7921316964286  C 34.0598958333333 17.2692522321429  34.3659722222222 17.7589285714286  34.59375 18.2611607142857  C 34.8215277777778 18.7633928571429  35.01015625 19.3083147321429  35.1596354166667 19.8959263392857  C 35.3091145833333 20.4835379464286  35.4087673611111 21.0309709821429  35.45859375 21.5382254464286  Z M 12.0651041666667 1.13002232142857  C 13.1328125 1.88337053571429  13.6666666666667 2.79241071428571  13.6666666666667 3.85714285714286  C 13.6666666666667 4.921875  13.1328125 5.83091517857143  12.0651041666667 6.58426339285714  C 10.9973958333333 7.33761160714286  9.70902777777778 7.71428571428571  8.2 7.71428571428571  C 6.69097222222222 7.71428571428571  5.40260416666667 7.33761160714286  4.33489583333333 6.58426339285714  C 3.2671875 5.83091517857143  2.73333333333333 4.921875  2.73333333333333 3.85714285714286  C 2.73333333333333 2.79241071428571  3.2671875 1.88337053571429  4.33489583333333 1.13002232142857  C 5.40260416666667 0.376674107142858  6.69097222222222 0  8.2 0  C 9.70902777777778 0  10.9973958333333 0.376674107142858  12.0651041666667 1.13002232142857  Z M 26.29765625 5.55217633928571  C 27.89921875 6.68219866071429  28.7 8.04575892857143  28.7 9.64285714285714  C 28.7 11.2399553571429  27.89921875 12.603515625  26.29765625 13.7335379464286  C 24.69609375 14.8635602678571  22.7635416666667 15.4285714285714  20.5 15.4285714285714  C 18.2364583333333 15.4285714285714  16.30390625 14.8635602678571  14.70234375 13.7335379464286  C 13.10078125 12.603515625  12.3 11.2399553571429  12.3 9.64285714285714  C 12.3 8.04575892857143  13.10078125 6.68219866071429  14.70234375 5.55217633928571  C 16.30390625 4.42215401785714  18.2364583333333 3.85714285714286  20.5 3.85714285714286  C 22.7635416666667 3.85714285714286  24.69609375 4.42215401785714  26.29765625 5.55217633928571  Z M 38.3520833333333 7.71428571428571  C 40.1173611111111 7.71428571428571  41 9.48716517857143  41 13.0329241071429  C 41 13.81640625  40.6013888888889 14.4115513392857  39.8041666666667 14.818359375  C 39.0069444444444 15.2251674107143  38.0246527777778 15.4285714285714  36.8572916666667 15.4285714285714  L 33.9958333333333 15.4285714285714  C 32.5295138888889 14.1930803571429  30.6432291666667 13.5502232142857  28.3369791666667 13.5  C 29.4901041666667 12.3247767857143  30.0666666666667 11.0390625  30.0666666666667 9.64285714285714  C 30.0666666666667 9.3515625  30.0310763888889 9.02008928571428  29.9598958333333 8.6484375  C 30.8994791666667 8.87946428571428  31.8461805555556 8.99497767857143  32.8 8.99497767857143  C 33.6399305555556 8.99497767857143  34.4869791666667 8.88699776785714  35.3411458333333 8.67103794642857  C 36.1953125 8.455078125  36.8893229166667 8.24162946428571  37.4231770833333 8.03069196428571  C 37.95703125 7.81975446428571  38.2666666666667 7.71428571428571  38.3520833333333 7.71428571428571  Z M 36.6651041666667 1.13002232142857  C 37.7328125 1.88337053571429  38.2666666666667 2.79241071428571  38.2666666666667 3.85714285714286  C 38.2666666666667 4.921875  37.7328125 5.83091517857143  36.6651041666667 6.58426339285714  C 35.5973958333333 7.33761160714286  34.3090277777778 7.71428571428571  32.8 7.71428571428571  C 31.2909722222222 7.71428571428571  30.0026041666667 7.33761160714286  28.9348958333333 6.58426339285714  C 27.8671875 5.83091517857143  27.3333333333333 4.921875  27.3333333333333 3.85714285714286  C 27.3333333333333 2.79241071428571  27.8671875 1.88337053571429  28.9348958333333 1.13002232142857  C 30.0026041666667 0.376674107142858  31.2909722222222 0  32.8 0  C 34.3090277777778 0  35.5973958333333 0.376674107142858  36.6651041666667 1.13002232142857  Z " fill-rule="nonzero" fill="#42c493" stroke="none" transform="matrix(1 0 0 1 124 218 )" />
  </g>
</svg>