<?xml version="1.0" encoding="utf-8"?>
<svg version="1.1" xmlns:xlink="http://www.w3.org/1999/xlink" width="34px" height="24px" xmlns="http://www.w3.org/2000/svg">
  <g transform="matrix(1 0 0 1 -458 -218 )">
    <path d="M 29.1127633209418 13.7116134060795  C 29.1268071045023 13.7365549493375  29.1338289962825 13.7739672642245  29.1338289962825 13.8238503507405  L 29.1338289962825 22.8028059236165  C 29.1338289962825 23.1270459859704  29.0004130524577 23.4076383476228  28.7335811648079 23.6445830085737  C 28.4667492771582 23.8815276695246  28.1507641470467 24  27.7856257744734 24  L 19.6964064436183 24  L 19.6964064436183 16.8168355416991  L 14.3035935563817 16.8168355416991  L 14.3035935563817 24  L 6.21437422552664 24  C 5.84923585295333 24  5.5332507228418 23.8815276695246  5.26641883519207 23.6445830085737  C 4.99958694754234 23.4076383476228  4.86617100371747 23.1270459859704  4.86617100371747 22.8028059236165  L 4.86617100371747 13.8238503507405  C 4.86617100371747 13.8113795791115  4.8696819496076 13.792673421668  4.87670384138786 13.76773187841  C 4.88372573316811 13.742790335152  4.88723667905824 13.7240841777085  4.88723667905824 13.7116134060795  L 17 4.84489477786438  L 29.1127633209418 13.7116134060795  Z M 33.9789343246592 12.0935307872175  C 33.9929781082197 12.2618862042089  33.943824865758 12.4084177708496  33.8314745972739 12.5331254871395  L 32.5254027261462 13.9173811379579  C 32.4130524576621 14.0296180826189  32.2655927302767 14.0982073265783  32.0830235439901 14.1231488698363  L 32.0198265179678 14.1231488698363  C 31.8372573316811 14.1231488698363  31.6897976042957 14.0795011691348  31.5774473358116 13.9922057677319  L 17 3.1987529228371  L 2.42255266418835 13.9922057677319  C 2.25402726146221 14.0919719407638  2.08550185873606 14.1356196414653  1.91697645600991 14.1231488698363  C 1.73440726972325 14.0982073265783  1.58694754233788 14.0296180826189  1.47459727385378 13.9173811379579  L 0.168525402726146 12.5331254871395  C 0.0561751342420488 12.4084177708496  0.00702189178025614 12.2618862042089  0.0210656753407683 12.0935307872175  C 0.0351094589012806 11.925175370226  0.112350268484098 11.7911145752143  0.252788104089219 11.6913484021824  L 15.3990086741016 0.486360093530788  C 15.848409748038 0.162120031176927  16.3820735233375 0  17 0  C 17.6179264766625 0  18.151590251962 0.162120031176927  18.6009913258984 0.486360093530788  L 23.7410161090458 4.30241621200312  L 23.7410161090458 0.654715510522212  C 23.7410161090458 0.480124707716287  23.8042131350682 0.336710833982852  23.9306071871128 0.224473889321903  C 24.0570012391574 0.112236944660951  24.2185047501033 0.0561184723304757  24.4151177199504 0.0561184723304757  L 28.4597273853779 0.0561184723304757  C 28.6563403552251 0.0561184723304757  28.817843866171 0.112236944660951  28.9442379182156 0.224473889321903  C 29.0706319702602 0.336710833982852  29.1338289962825 0.480124707716287  29.1338289962825 0.654715510522212  L 29.1338289962825 8.28682774746687  L 33.7472118959108 11.6913484021824  C 33.8876497315159 11.7911145752143  33.9648905410987 11.925175370226  33.9789343246592 12.0935307872175  Z " fill-rule="nonzero" fill="#48b9fd" stroke="none" transform="matrix(1 0 0 1 458 218 )" />
  </g>
</svg>