<?xml version="1.0" encoding="utf-8"?>
<svg version="1.1" xmlns:xlink="http://www.w3.org/1999/xlink" width="32px" height="27px" xmlns="http://www.w3.org/2000/svg">
  <g transform="matrix(1 0 0 1 -1101 -216 )">
    <path d="M 19.3269230769231 13.166015625  C 19.5705128205128 12.943359375  19.6923076923077 12.6796875  19.6923076923077 12.375  C 19.6923076923077 12.0703125  19.5705128205128 11.806640625  19.3269230769231 11.583984375  C 19.0833333333333 11.361328125  18.7948717948718 11.25  18.4615384615385 11.25  L 13.5384615384615 11.25  C 13.2051282051282 11.25  12.9166666666667 11.361328125  12.6730769230769 11.583984375  C 12.4294871794872 11.806640625  12.3076923076923 12.0703125  12.3076923076923 12.375  C 12.3076923076923 12.6796875  12.4294871794872 12.943359375  12.6730769230769 13.166015625  C 12.9166666666667 13.388671875  13.2051282051282 13.5  13.5384615384615 13.5  L 18.4615384615385 13.5  C 18.7948717948718 13.5  19.0833333333333 13.388671875  19.3269230769231 13.166015625  Z M 30.4038461538462 8.208984375  C 30.6474358974359 8.431640625  30.7692307692308 8.6953125  30.7692307692308 9  L 30.7692307692308 25.875  C 30.7692307692308 26.1796875  30.6474358974359 26.443359375  30.4038461538462 26.666015625  C 30.1602564102564 26.888671875  29.8717948717949 27  29.5384615384615 27  L 2.46153846153846 27  C 2.12820512820513 27  1.83974358974359 26.888671875  1.59615384615385 26.666015625  C 1.3525641025641 26.443359375  1.23076923076923 26.1796875  1.23076923076923 25.875  L 1.23076923076923 9  C 1.23076923076923 8.6953125  1.3525641025641 8.431640625  1.59615384615385 8.208984375  C 1.83974358974359 7.986328125  2.12820512820513 7.875  2.46153846153846 8  L 29.5384615384615 8  C 29.8717948717949 7.875  30.1602564102564 7.986328125  30.4038461538462 8.208984375  Z M 31.6346153846154 0.333984374999999  C 31.8782051282051 0.556640624999996  32 0.820312499999996  32 1.125  L 32 5.625  C 32 5.9296875  31.8782051282051 6.193359375  31.6346153846154 6.416015625  C 31.3910256410256 6.638671875  31.1025641025641 6.75  30.7692307692308 7  L 1.23076923076923 7  C 0.897435897435898 6.75  0.608974358974359 6.638671875  0.365384615384615 6.416015625  C 0.121794871794872 6.193359375  0 5.9296875  0 5.625  L 0 1.125  C 0 0.820312499999996  0.121794871794872 0.556640624999996  0.365384615384615 0.333984374999999  C 0.608974358974359 0.111328124999999  0.897435897435898 0  1.23076923076923 0  L 30.7692307692308 0  C 31.1025641025641 0  31.3910256410256 0.111328124999999  31.6346153846154 0.333984374999999  Z " fill-rule="nonzero" fill="#bf5cd4" stroke="none" transform="matrix(1 0 0 1 1101 216 )" />
  </g>
</svg>