<?xml version="1.0" encoding="utf-8"?>
<svg version="1.1" xmlns:xlink="http://www.w3.org/1999/xlink" width="30px" height="25px" xmlns="http://www.w3.org/2000/svg">
  <g transform="matrix(1 0 0 1 -1433 -218 )">
    <path d="M 0 5.35714285714286  L 15 0  L 30 5.35714285714286  L 30 7.14285714285714  L 28 7.14285714285714  C 28 7.38467261904762  27.8932291666667 7.59393601190476  27.6796875 7.77064732142857  C 27.4661458333333 7.94735863095238  27.2135416666667 8.03571428571428  26.921875 8  L 3.078125 8  C 2.78645833333333 8.03571428571428  2.53385416666667 7.94735863095238  2.3203125 7.77064732142857  C 2.10677083333333 7.59393601190476  2 7.38467261904762  2 7.14285714285714  L 0 7.14285714285714  L 0 5.35714285714286  Z M 4 19.6428571428571  L 4 8.92857142857143  L 8 8.92857142857143  L 8 19.6428571428571  L 10 19.6428571428571  L 10 8.92857142857143  L 14 8.92857142857143  L 14 19.6428571428571  L 16 19.6428571428571  L 16 8.92857142857143  L 20 8.92857142857143  L 20 19.6428571428571  L 22 19.6428571428571  L 22 8.92857142857143  L 26 8.92857142857143  L 26 19.6428571428571  L 26.921875 19.6428571428571  C 27.2135416666667 19.6428571428571  27.4661458333333 19.731212797619  27.6796875 19.9079241071429  C 27.8932291666667 20.0846354166667  28 20.2938988095238  28 20.5357142857143  L 28 21  L 2 21  L 2 20.5357142857143  C 2 20.2938988095238  2.10677083333333 20.0846354166667  2.3203125 19.9079241071429  C 2.53385416666667 19.731212797619  2.78645833333333 19.6428571428571  3.078125 19.6428571428571  L 4 19.6428571428571  Z M 1.078125 22  L 28.921875 22  C 29.2135416666667 22.3214285714286  29.4661458333333 22.4097842261905  29.6796875 22.5864955357143  C 29.8932291666667 22.7632068452381  30 22.9724702380952  30 23.2142857142857  L 30 25  L 0 25  L 0 23.2142857142857  C 0 22.9724702380952  0.106770833333333 22.7632068452381  0.3203125 22.5864955357143  C 0.533854166666667 22.4097842261905  0.786458333333333 22.3214285714286  1.078125 22  Z " fill-rule="nonzero" fill="#d79a25" stroke="none" transform="matrix(1 0 0 1 1433 218 )" />
  </g>
</svg>